<?xml version="1.0" encoding="UTF-8"?>
<svg xmlns="http://www.w3.org/2000/svg" width="64" height="64" viewBox="0 0 64 64">
  <circle cx="32" cy="32" r="32" fill="#1a1a1a"/>
  <path
    d="m 12.112184,9.504524
       c 6.127422,0 12.254846,0 18.567948,0
       0,2.465961 0,4.931919 0,7.472606
       -4.006393,0 -8.012785,0 -12.140581,0
       0,8.877455 0,17.75491 0,26.901377
       -2.121031,0 -4.242061,0 -6.427367,0
       0,-11.343414 0,-22.686826 0,-34.373983
       z"
    fill="#ffffff"
  />
  <path
    d="m 43.709618,18.976596
       c 2.154745,0 4.30949,0 6.529532,0
       0,11.455421 0,22.91084 0,34.713395
       -6.224819,0 -12.449638,0 -18.863087,0
       0,-2.490308 0,-4.980618 0,-7.546391
       4.070072,0 8.140148,0 12.333555,0
       0,-8.96511 0,-17.930222 0,-27.167004
       z"
    fill="#ff015b"
  />
</svg>
