<?xml version="1.0" encoding="UTF-8"?>
<svg xmlns="http://www.w3.org/2000/svg"
     width="128" height="128"
     viewBox="0 0 33.866667 33.866667">
  <g transform="scale(0.529166667)">
    <circle cx="32" cy="32" r="30" fill="#1a1a1a"/>
    <path fill="#fff" d="m 14.804492,11.889139 c 6.127422,0 12.254846,0 18.567948,0 0,2.294891 0,4.589779 0,6.954211 -4.006393,0 -8.012785,0 -12.140581,0 0,8.261602 0,16.523205 0,25.035157 -2.121031,0 -4.242061,0 -6.427367,0 0,-10.556491 0,-21.11298 0,-31.989368 z"/>
    <path fill="#ff015b" d="m 43.171156,18.976595 c 2.154745,0 4.30949,0 6.529532,0 0,10.693883 0,21.387763 0,32.405703 -6.224819,0 -12.449638,0 -18.863087,0 0,-2.324756 0,-4.649514 0,-7.044719 4.070072,0 8.140148,0 12.333555,0 0,-8.369123 0,-16.738249 0,-25.360984 z"/>
  </g>
</svg>
